#Comment line ignore any data following # character 
#Hierarchical Translation and Rotation (.htr) file 
[Header]	
#Header keywords are followed by a single value 
FileType HTR		#Single word string
DataType HTRS		#Translation followed by rotation and scale data
FileVersion 1		#integer
NumSegments 84		#integer
NumFrames 2		#integer
DataFrameRate 30		#integer, data frame rate in this file
EulerRotationOrder ZYX
CalibrationUnits mm
RotationUnits Degrees
GlobalAxisofGravity Y
BoneLengthAxis Y
ScaleFactor 1.00
[SegmentNames&Hierarchy]
#CHILD	PARENT
MASTER GLOBAL
root MASTER
chest root
L_mid_tent01 root
R_mid_tent01 root
spine01 root
Bip01_Neck chest
L_humerus chest
R_humerus chest
weapon_bone chest
Bip01_Head Bip01_Neck
eye_left_bone Bip01_Head
eye_right_bone Bip01_Head
L_forearm L_humerus
L_front_hand L_forearm
L_weapon_bone L_forearm
L_front_hand01_01 L_front_hand
L_front_hand02_01 L_front_hand
L_front_hand03_01 L_front_hand
L_front_hand01_02 L_front_hand01_01
L_front_hand02_02 L_front_hand02_01
L_front_hand03_02 L_front_hand03_01
R_forearm R_humerus
R_front_hand R_forearm
R_weapon_bone R_forearm
R_front_hand01_01 R_front_hand
R_front_hand02_01 R_front_hand
R_front_hand03_01 R_front_hand
R_front_hand01_02 R_front_hand01_01
R_front_hand02_02 R_front_hand02_01
R_front_hand03_02 R_front_hand03_01
null_rope01_connect L_mid_tent01
Rope1_Seg01 null_rope01_connect
Rope1_Seg02 Rope1_Seg01
Rope1_Seg03 Rope1_Seg02
Rope1_Seg04 Rope1_Seg03
Rope1_Seg05 Rope1_Seg04
Rope1_Seg06 Rope1_Seg05
Rope1_Seg07 Rope1_Seg06
Rope1_Seg09 Rope1_Seg07
L_mid_hand01 Rope1_Seg09
L_mid_hand02 Rope1_Seg09
L_mid_hand03 Rope1_Seg09
null_rope02_connect R_mid_tent01
Rope2_Seg01 null_rope02_connect
Rope2_Seg02 Rope2_Seg01
Rope2_Seg03 Rope2_Seg02
Rope2_Seg04 Rope2_Seg03
Rope2_Seg05 Rope2_Seg04
Rope2_Seg06 Rope2_Seg05
Rope2_Seg07 Rope2_Seg06
Rope2_Seg09 Rope2_Seg07
R_mid_hand01 Rope2_Seg09
R_mid_hand02 Rope2_Seg09
R_mid_hand03 Rope2_Seg09
spine02 spine01
spine03 spine02
pelvis spine03
null_rope03_connect pelvis
null_rope04_connect pelvis
Rope3_Seg01 null_rope03_connect
Rope3_Seg02 Rope3_Seg01
Rope3_Seg03 Rope3_Seg02
Rope3_Seg04 Rope3_Seg03
Rope3_Seg05 Rope3_Seg04
Rope3_Seg06 Rope3_Seg05
Rope3_Seg07 Rope3_Seg06
Rope3_Seg08 Rope3_Seg07
Rope3_Seg09 Rope3_Seg08
R_rear_hand01 Rope3_Seg09
R_rear_hand02 Rope3_Seg09
R_rear_hand03 Rope3_Seg09
Rope4_Seg01 null_rope04_connect
Rope4_Seg02 Rope4_Seg01
Rope4_Seg03 Rope4_Seg02
Rope4_Seg04 Rope4_Seg03
Rope4_Seg05 Rope4_Seg04
Rope4_Seg06 Rope4_Seg05
Rope4_Seg07 Rope4_Seg06
Rope4_Seg08 Rope4_Seg07
Rope4_Seg09 Rope4_Seg08
L_rear_hand01 Rope4_Seg09
L_rear_hand02 Rope4_Seg09
L_rear_hand03 Rope4_Seg09
[BasePosition]
#SegmentName Tx, Ty, Tz, Rx, Ry, Rz, BoneLength
MASTER 0.000000 0.000000 0.000000 -90.000000 0.000000 0.000000 10.000000 
root 0.000000 0.000000 0.000000 0.000000 0.000000 0.000000 10.000000 
chest 0.000000 0.000000 0.000000 0.000000 0.000000 0.000000 10.000000 
L_mid_tent01 0.000000 0.000000 0.000000 0.000000 0.000000 0.000000 10.000000 
R_mid_tent01 0.000000 0.000000 0.000000 0.000000 0.000000 0.000000 10.000000 
spine01 0.000000 0.000000 0.000000 0.000000 0.000000 0.000000 10.000000 
Bip01_Neck 0.000000 0.000000 0.000000 0.000000 0.000000 0.000000 10.000000 
L_humerus 0.000000 0.000000 0.000000 0.000000 0.000000 0.000000 10.000000 
R_humerus 0.000000 0.000000 0.000000 0.000000 0.000000 0.000000 10.000000 
weapon_bone 0.000000 0.000000 0.000000 0.000000 0.000000 0.000000 10.000000 
Bip01_Head 0.000000 0.000000 0.000000 0.000000 0.000000 0.000000 10.000000 
eye_left_bone 0.000000 0.000000 0.000000 0.000000 0.000000 0.000000 10.000000 
eye_right_bone 0.000000 0.000000 0.000000 0.000000 0.000000 0.000000 10.000000 
L_forearm 0.000000 0.000000 0.000000 0.000000 0.000000 0.000000 10.000000 
L_front_hand 0.000000 0.000000 0.000000 0.000000 0.000000 0.000000 10.000000 
L_weapon_bone 0.000000 0.000000 0.000000 0.000000 0.000000 0.000000 10.000000 
L_front_hand01_01 0.000000 0.000000 0.000000 0.000000 0.000000 0.000000 10.000000 
L_front_hand02_01 0.000000 0.000000 0.000000 0.000000 0.000000 0.000000 10.000000 
L_front_hand03_01 0.000000 0.000000 0.000000 0.000000 0.000000 0.000000 10.000000 
L_front_hand01_02 0.000000 0.000000 0.000000 0.000000 0.000000 0.000000 10.000000 
L_front_hand02_02 0.000000 0.000000 0.000000 0.000000 0.000000 0.000000 10.000000 
L_front_hand03_02 0.000000 0.000000 0.000000 0.000000 0.000000 0.000000 10.000000 
R_forearm 0.000000 0.000000 0.000000 0.000000 0.000000 0.000000 10.000000 
R_front_hand 0.000000 0.000000 0.000000 0.000000 0.000000 0.000000 10.000000 
R_weapon_bone 0.000000 0.000000 0.000000 0.000000 0.000000 0.000000 10.000000 
R_front_hand01_01 0.000000 0.000000 0.000000 0.000000 0.000000 0.000000 10.000000 
R_front_hand02_01 0.000000 0.000000 0.000000 0.000000 0.000000 0.000000 10.000000 
R_front_hand03_01 0.000000 0.000000 0.000000 0.000000 0.000000 0.000000 10.000000 
R_front_hand01_02 0.000000 0.000000 0.000000 0.000000 0.000000 0.000000 10.000000 
R_front_hand02_02 0.000000 0.000000 0.000000 0.000000 0.000000 0.000000 10.000000 
R_front_hand03_02 0.000000 0.000000 0.000000 0.000000 0.000000 0.000000 10.000000 
null_rope01_connect 0.000000 0.000000 0.000000 0.000000 0.000000 0.000000 10.000000 
Rope1_Seg01 0.000000 0.000000 0.000000 0.000000 0.000000 0.000000 10.000000 
Rope1_Seg02 0.000000 0.000000 0.000000 0.000000 0.000000 0.000000 10.000000 
Rope1_Seg03 0.000000 0.000000 0.000000 0.000000 0.000000 0.000000 10.000000 
Rope1_Seg04 0.000000 0.000000 0.000000 0.000000 0.000000 0.000000 10.000000 
Rope1_Seg05 0.000000 0.000000 0.000000 0.000000 0.000000 0.000000 10.000000 
Rope1_Seg06 0.000000 0.000000 0.000000 0.000000 0.000000 0.000000 10.000000 
Rope1_Seg07 0.000000 0.000000 0.000000 0.000000 0.000000 0.000000 10.000000 
Rope1_Seg09 0.000000 0.000000 0.000000 0.000000 0.000000 0.000000 10.000000 
L_mid_hand01 0.000000 0.000000 0.000000 0.000000 0.000000 0.000000 10.000000 
L_mid_hand02 0.000000 0.000000 0.000000 0.000000 0.000000 0.000000 10.000000 
L_mid_hand03 0.000000 0.000000 0.000000 0.000000 0.000000 0.000000 10.000000 
null_rope02_connect 0.000000 0.000000 0.000000 0.000000 0.000000 0.000000 10.000000 
Rope2_Seg01 0.000000 0.000000 0.000000 0.000000 0.000000 0.000000 10.000000 
Rope2_Seg02 0.000000 0.000000 0.000000 0.000000 0.000000 0.000000 10.000000 
Rope2_Seg03 0.000000 0.000000 0.000000 0.000000 0.000000 0.000000 10.000000 
Rope2_Seg04 0.000000 0.000000 0.000000 0.000000 0.000000 0.000000 10.000000 
Rope2_Seg05 0.000000 0.000000 0.000000 0.000000 0.000000 0.000000 10.000000 
Rope2_Seg06 0.000000 0.000000 0.000000 0.000000 0.000000 0.000000 10.000000 
Rope2_Seg07 0.000000 0.000000 0.000000 0.000000 0.000000 0.000000 10.000000 
Rope2_Seg09 0.000000 0.000000 0.000000 0.000000 0.000000 0.000000 10.000000 
R_mid_hand01 0.000000 0.000000 0.000000 0.000000 0.000000 0.000000 10.000000 
R_mid_hand02 0.000000 0.000000 0.000000 0.000000 0.000000 0.000000 10.000000 
R_mid_hand03 0.000000 0.000000 0.000000 0.000000 0.000000 0.000000 10.000000 
spine02 0.000000 0.000000 0.000000 0.000000 0.000000 0.000000 10.000000 
spine03 0.000000 0.000000 0.000000 0.000000 0.000000 0.000000 10.000000 
pelvis 0.000000 0.000000 0.000000 0.000000 0.000000 0.000000 10.000000 
null_rope03_connect 0.000000 0.000000 0.000000 0.000000 0.000000 0.000000 10.000000 
null_rope04_connect 0.000000 0.000000 0.000000 0.000000 0.000000 0.000000 10.000000 
Rope3_Seg01 0.000000 0.000000 0.000000 0.000000 0.000000 0.000000 10.000000 
Rope3_Seg02 0.000000 0.000000 0.000000 0.000000 0.000000 0.000000 10.000000 
Rope3_Seg03 0.000000 0.000000 0.000000 0.000000 0.000000 0.000000 10.000000 
Rope3_Seg04 0.000000 0.000000 0.000000 0.000000 0.000000 0.000000 10.000000 
Rope3_Seg05 0.000000 0.000000 0.000000 0.000000 0.000000 0.000000 10.000000 
Rope3_Seg06 0.000000 0.000000 0.000000 0.000000 0.000000 0.000000 10.000000 
Rope3_Seg07 0.000000 0.000000 0.000000 0.000000 0.000000 0.000000 10.000000 
Rope3_Seg08 0.000000 0.000000 0.000000 0.000000 0.000000 0.000000 10.000000 
Rope3_Seg09 0.000000 0.000000 0.000000 0.000000 0.000000 0.000000 10.000000 
R_rear_hand01 0.000000 0.000000 0.000000 0.000000 0.000000 0.000000 10.000000 
R_rear_hand02 0.000000 0.000000 0.000000 0.000000 0.000000 0.000000 10.000000 
R_rear_hand03 0.000000 0.000000 0.000000 0.000000 0.000000 0.000000 10.000000 
Rope4_Seg01 0.000000 0.000000 0.000000 0.000000 0.000000 0.000000 10.000000 
Rope4_Seg02 0.000000 0.000000 0.000000 0.000000 0.000000 0.000000 10.000000 
Rope4_Seg03 0.000000 0.000000 0.000000 0.000000 0.000000 0.000000 10.000000 
Rope4_Seg04 0.000000 0.000000 0.000000 0.000000 0.000000 0.000000 10.000000 
Rope4_Seg05 0.000000 0.000000 0.000000 0.000000 0.000000 0.000000 10.000000 
Rope4_Seg06 0.000000 0.000000 0.000000 0.000000 0.000000 0.000000 10.000000 
Rope4_Seg07 0.000000 0.000000 0.000000 0.000000 0.000000 0.000000 10.000000 
Rope4_Seg08 0.000000 0.000000 0.000000 0.000000 0.000000 0.000000 10.000000 
Rope4_Seg09 0.000000 0.000000 0.000000 0.000000 0.000000 0.000000 10.000000 
L_rear_hand01 0.000000 0.000000 0.000000 0.000000 0.000000 0.000000 10.000000 
L_rear_hand02 0.000000 0.000000 0.000000 0.000000 0.000000 0.000000 10.000000 
L_rear_hand03 0.000000 0.000000 0.000000 0.000000 0.000000 0.000000 10.000000 
#Beginning of Data. Separated by tabs
#Fr	Tx	Ty	Tz	Rx	Ry	Rz	SF
[MASTER]
7 0.000000 0.000000 0.000000 0.001660 0.001660 0.001660 0.000000
8 0.000000 0.000000 0.000000 0.001660 0.001660 0.001660 0.000000
[root]
7 -16.502245 -199.343781 1093.534668 -85.747307 -61.785316 -93.080688 1111.678223
8 -16.502245 -199.343781 1093.534668 -85.747322 -61.785324 -93.080688 1111.678223
[chest]
7 -84.512650 -34.090519 0.000000 2.375708 -1.526847 -123.052742 91.129311
8 -84.512650 -34.090519 0.000000 2.373652 -1.516231 -122.889000 91.129311
[L_mid_tent01]
7 27.299500 22.177483 -249.917984 -16.789337 1.479114 127.565140 252.380859
8 27.299500 22.177483 -249.917984 -16.774488 1.569250 128.191940 252.380859
[R_mid_tent01]
7 23.228794 24.509907 226.238495 -175.062103 2.057792 116.715408 228.744751
8 23.228794 24.509907 226.238495 -175.078110 2.076451 117.262260 228.744751
[spine01]
7 -0.361383 -0.195265 0.000000 -0.000001 -0.000007 22.052340 0.410763
8 -0.361383 -0.195265 0.000000 -0.000001 -0.000007 22.052340 0.410763
[Bip01_Neck]
7 165.484543 71.581718 0.000119 175.896118 1.177290 24.871183 180.302734
8 165.484543 71.581718 0.000119 175.896118 1.177290 24.871183 180.302734
[L_humerus]
7 -13.983130 -135.272980 -120.471481 -91.668335 0.804969 -167.458282 181.680161
8 -13.983130 -135.272980 -120.471481 -91.668335 0.804970 -167.458282 181.680161
[R_humerus]
7 -13.983309 -135.273102 125.287651 103.000740 1.729733 -169.272232 184.909012
8 -13.983309 -135.273102 125.287651 103.000740 1.729732 -169.272232 184.909012
[weapon_bone]
7 235.964890 -300.705902 0.000000 0.000000 -89.951546 -128.212341 382.234833
8 235.964890 -300.705902 0.000000 0.000000 -89.951546 -128.212341 382.234833
[Bip01_Head]
7 102.819817 23.735493 5.410404 3.150732 3.423701 -20.839092 105.662483
8 102.819817 23.735491 5.410404 3.150731 3.423701 -20.839088 105.662483
[eye_left_bone]
7 -24.626970 125.451866 -64.772606 0.000000 -90.000000 -99.840431 143.318359
8 -24.626970 125.451866 -64.772606 0.000000 -90.000000 -99.840431 143.318359
[eye_right_bone]
7 -24.626970 125.451866 64.327362 0.000000 -89.960434 80.159386 143.117676
8 -24.626970 125.451866 64.327362 0.000000 -89.960434 80.159386 143.117676
[L_forearm]
7 322.776093 0.000000 -0.000119 0.000017 0.002347 -89.149834 322.776093
8 322.776093 0.000000 -0.000119 0.000017 0.002347 -89.149834 322.776093
[L_front_hand]
7 241.149185 -0.042021 -3.300071 -177.730179 -0.049232 -80.185349 241.171753
8 241.149185 -0.042021 -3.300071 -177.730713 -0.048303 -80.200409 241.171753
[L_weapon_bone]
7 156.183838 0.000000 0.000000 0.000014 0.000007 0.000001 156.183838
8 156.183838 0.000000 0.000000 0.000014 0.000007 0.000001 156.183838
[L_front_hand01_01]
7 86.095154 20.947098 -0.655860 0.405585 -0.442306 -4.620490 88.609184
8 86.095154 20.947098 -0.655860 0.405585 -0.442306 -4.620490 88.609184
[L_front_hand02_01]
7 86.935165 -11.437475 24.513514 116.959450 3.630817 1.495453 91.046425
8 86.935165 -11.437475 24.513514 116.959450 3.630817 1.495453 91.046425
[L_front_hand03_01]
7 86.637497 -14.123976 -20.424902 -118.420097 -4.656303 -0.152527 90.126129
8 86.637497 -14.123976 -20.424902 -118.420097 -4.656303 -0.152527 90.126129
[L_front_hand01_02]
7 71.020905 -0.000179 0.000030 0.000004 -0.000005 -8.379269 71.020905
8 71.020905 -0.000179 0.000030 0.000004 -0.000005 -8.379269 71.020905
[L_front_hand02_02]
7 71.020927 -0.000119 0.000060 -0.000005 -0.000004 -8.379259 71.020927
8 71.020927 -0.000119 0.000060 -0.000005 -0.000004 -8.379259 71.020927
[L_front_hand03_02]
7 71.020905 -0.000060 0.000060 0.000015 -0.000040 -8.379267 71.020905
8 71.020905 -0.000060 0.000060 0.000015 -0.000040 -8.379267 71.020905
[R_forearm]
7 322.776428 -0.000060 0.000030 0.210837 -0.039294 -80.733582 322.776428
8 322.776428 -0.000060 0.000030 0.210808 -0.039449 -80.649223 322.776428
[R_front_hand]
7 238.847015 -0.006795 2.210259 -1.673232 -0.426306 -93.036018 238.857239
8 238.847015 -0.006795 2.210259 -1.672201 -0.427679 -93.071823 238.857239
[R_weapon_bone]
7 155.664093 0.002503 -0.000030 0.003487 0.001180 -90.988930 155.664078
8 155.664093 0.002503 -0.000030 0.003487 0.001180 -90.988930 155.664078
[R_front_hand01_01]
7 87.624611 14.231146 22.918642 -116.960213 3.496675 -1.324139 91.683487
8 87.624611 14.231146 22.918642 -116.960213 3.496675 -1.324139 91.683487
[R_front_hand02_01]
7 89.356956 14.367283 -19.491137 118.419647 -4.257089 0.609827 92.579636
8 89.356956 14.367283 -19.491137 118.419647 -4.257089 0.609827 92.579636
[R_front_hand03_01]
7 87.286232 -22.307278 -0.143439 -0.387970 -0.231462 4.232001 90.091743
8 87.286232 -22.307278 -0.143439 -0.387970 -0.231462 4.232001 90.091743
[R_front_hand01_02]
7 71.020905 0.000060 0.000119 -0.000005 -0.000020 8.379271 71.020905
8 71.020905 0.000060 0.000119 -0.000005 -0.000020 8.379271 71.020905
[R_front_hand02_02]
7 71.020844 -0.000030 -0.000119 0.000000 -0.000021 8.379271 71.020836
8 71.020844 -0.000030 -0.000119 0.000000 -0.000021 8.379271 71.020836
[R_front_hand03_02]
7 71.020905 0.000000 0.000030 -0.000001 -0.000020 8.379275 71.020905
8 71.020905 0.000000 0.000030 -0.000001 -0.000020 8.379275 71.020905
[null_rope01_connect]
7 328.732483 0.000000 -0.000238 112.165619 -73.416351 -87.797562 328.732483
8 328.732483 0.000000 -0.000238 111.835495 -73.409630 -88.110413 328.732483
[Rope1_Seg01]
7 0.000000 0.000000 0.000000 75.592743 24.351280 84.056770 0.000000
8 0.000000 0.000000 0.000000 75.650063 22.709064 83.553925 0.000000
[Rope1_Seg02]
7 139.999863 -0.000179 0.000000 56.182121 -13.803427 48.956459 139.999863
8 139.999863 -0.000179 0.000000 57.484184 -13.134191 47.677299 139.999863
[Rope1_Seg03]
7 139.999924 0.000060 -0.000060 51.536411 11.235190 15.804653 139.999924
8 139.999924 0.000060 -0.000060 53.693199 12.230886 16.751612 139.999924
[Rope1_Seg04]
7 139.999924 -0.000060 -0.000119 33.488605 46.868301 4.515624 139.999924
8 139.999924 -0.000060 -0.000119 29.584793 46.777847 1.479716 139.999924
[Rope1_Seg05]
7 139.999832 0.000119 -0.000060 0.062883 20.773891 -11.454856 139.999832
8 139.999832 0.000119 -0.000060 -0.019967 20.027475 -11.118310 139.999832
[Rope1_Seg06]
7 139.999954 0.000119 -0.000060 -0.458938 8.955942 -5.180426 139.999954
8 139.999954 0.000119 -0.000060 -0.440322 8.579529 -4.962746 139.999954
[Rope1_Seg07]
7 139.999985 0.000060 0.000000 -0.137979 2.483066 -1.421108 139.999985
8 139.999985 0.000060 0.000000 -0.129794 2.349667 -1.344071 139.999985
[Rope1_Seg09]
7 121.602913 0.000119 -0.000089 -89.793175 -1.359789 0.847147 121.602913
8 121.602913 0.000119 -0.000089 -89.793175 -1.359789 0.847147 121.602913
[L_mid_hand01]
7 103.859421 1.038730 8.195221 104.352043 0.341479 -0.444583 104.187431
8 103.859421 1.038730 8.195221 104.352036 0.341479 -0.444583 104.187431
[L_mid_hand02]
7 105.572853 -4.139662 -10.864139 -135.608444 3.905687 -3.381056 106.211075
8 105.572853 -4.139662 -10.864139 -135.608444 3.905687 -3.381056 106.211075
[L_mid_hand03]
7 104.641464 17.579376 -3.913581 -18.761518 -0.324361 2.942912 106.179977
8 104.641464 17.579376 -3.913581 -18.761518 -0.324361 2.942913 106.179977
[null_rope02_connect]
7 328.732849 0.000179 -0.000119 124.830261 84.449318 -90.281685 328.732849
8 328.732849 0.000179 -0.000119 124.172882 84.486511 -90.399239 328.732849
[Rope2_Seg01]
7 0.000076 0.000110 0.000153 -6.418636 51.479977 105.996681 0.000203
8 0.000076 0.000110 0.000153 -6.298889 51.376110 106.141052 0.000203
[Rope2_Seg02]
7 139.999741 -0.000060 -0.000119 -17.071518 -53.396458 -33.419750 139.999756
8 139.999741 -0.000060 -0.000119 -17.328022 -54.369930 -34.908539 139.999756
[Rope2_Seg03]
7 140.000107 0.000030 0.000000 -27.184851 -17.434912 -29.477940 140.000107
8 140.000107 0.000030 0.000000 -26.549419 -16.365290 -28.848831 140.000107
[Rope2_Seg04]
7 139.999802 0.000000 -0.000060 -20.491789 -11.660222 -31.287800 139.999802
8 139.999802 0.000000 -0.000060 -20.580385 -11.725011 -31.795809 139.999802
[Rope2_Seg05]
7 139.999985 -0.000060 0.000119 -12.122201 0.850843 -32.924343 139.999985
8 139.999985 -0.000060 0.000119 -11.811304 1.123578 -32.464725 139.999985
[Rope2_Seg06]
7 139.999893 -0.000030 -0.000119 -2.095897 3.457381 -13.010352 139.999893
8 139.999893 -0.000030 -0.000119 -2.028553 3.422956 -12.818243 139.999893
[Rope2_Seg07]
7 139.999893 0.000060 -0.000060 -0.329189 1.534091 -5.108862 139.999893
8 139.999893 0.000060 -0.000060 -0.316032 1.497816 -4.984790 139.999893
[Rope2_Seg09]
7 121.338966 0.000089 -0.000060 33.793236 -1.359788 -0.847141 121.338966
8 121.338966 0.000089 -0.000060 33.793236 -1.359788 -0.847141 121.338966
[R_mid_hand01]
7 104.680779 11.144459 -10.335981 -47.384258 2.963522 5.452604 105.778534
8 104.680779 11.144459 -10.335981 -47.384243 2.963521 5.452602 105.778534
[R_mid_hand02]
7 104.070427 2.443552 8.231699 75.626297 -2.250001 1.111093 104.424065
8 104.070427 2.443552 8.231699 75.626289 -2.250001 1.111093 104.424065
[R_mid_hand03]
7 106.028137 -11.221827 -5.996406 -164.381912 2.495983 -6.140520 106.788818
8 106.028137 -11.221827 -5.996406 -164.381912 2.495983 -6.140520 106.788818
[spine02]
7 129.756927 0.001550 0.000119 -3.564247 -2.926613 47.565361 129.756927
8 129.756927 0.001550 0.000119 -3.577870 -2.915277 47.833347 129.756927
[spine03]
7 79.115631 0.000000 -0.000119 5.607013 8.620237 52.329319 79.115631
8 79.115631 0.000000 -0.000119 5.636616 8.633144 52.590466 79.115631
[pelvis]
7 169.435242 0.051022 0.000000 -7.634351 -2.924155 14.728820 169.435257
8 169.435242 0.051022 0.000000 -7.670973 -2.929709 14.803782 169.435257
[null_rope03_connect]
7 -1.257226 -2.466202 137.391083 148.659225 -84.142479 -133.129532 137.418976
8 -1.257226 -2.466202 137.391083 148.201996 -84.119232 -133.339859 137.418976
[null_rope04_connect]
7 -1.259640 -2.480268 -137.844437 148.659225 -84.142479 -133.129532 137.872513
8 -1.259640 -2.480268 -137.844437 148.201996 -84.119232 -133.339859 137.872513
[Rope3_Seg01]
7 0.000010 0.000038 -0.000114 -172.103958 75.745682 -107.505661 0.000121
8 0.000010 0.000038 -0.000114 -171.535934 75.419472 -107.068314 0.000121
[Rope3_Seg02]
7 139.999924 -0.000119 0.000060 -9.921784 -18.574646 10.575046 139.999924
8 139.999924 -0.000119 0.000060 -10.107414 -18.803413 10.776939 139.999924
[Rope3_Seg03]
7 139.999924 -0.000119 0.000119 -19.080942 -44.112122 21.685053 139.999924
8 139.999924 -0.000119 0.000119 -19.340872 -44.486660 21.998287 139.999924
[Rope3_Seg04]
7 139.999924 0.000119 0.000000 -0.779007 -24.112474 4.766445 139.999924
8 139.999924 0.000119 0.000000 -0.709031 -23.907597 4.692753 139.999924
[Rope3_Seg05]
7 139.999924 -0.000238 0.000060 8.893437 -59.448620 14.523738 139.999924
8 139.999924 -0.000238 0.000060 8.921999 -59.975292 14.865113 139.999924
[Rope3_Seg06]
7 139.999893 -0.000119 -0.000060 11.579359 -44.358147 27.927853 139.999893
8 139.999893 -0.000119 -0.000060 11.578712 -43.703335 27.688997 139.999893
[Rope3_Seg07]
7 139.999771 0.000060 -0.000119 3.025524 -5.345941 6.178400 139.999771
8 139.999771 0.000060 -0.000119 3.003613 -5.298782 6.132564 139.999771
[Rope3_Seg08]
7 139.999985 -0.000060 0.000000 1.495821 -1.986933 2.572334 139.999985
8 139.999985 -0.000060 0.000000 1.491259 -1.977501 2.561928 139.999985
[Rope3_Seg09]
7 90.185997 -0.000179 -0.000060 89.793228 -1.359877 -0.847183 90.185997
8 90.185997 -0.000179 -0.000060 89.793228 -1.359877 -0.847183 90.185997
[R_rear_hand01]
7 103.366196 -6.073594 -10.757982 -156.049316 6.070419 -2.795869 104.101845
8 103.366196 -6.073594 -10.757982 -156.049316 6.070419 -2.795869 104.101845
[R_rear_hand02]
7 100.509819 12.039542 -7.992327 -38.708435 1.958051 5.461186 101.543350
8 100.509819 12.039542 -7.992327 -38.708435 1.958051 5.461186 101.543350
[R_rear_hand03]
7 101.539970 5.215704 5.435467 84.307625 -2.361032 4.099037 101.819031
8 101.539970 5.215704 5.435467 84.307625 -2.361032 4.099037 101.819031
[Rope4_Seg01]
7 0.000014 0.000067 -0.000162 85.967049 78.823837 -75.723000 0.000176
8 0.000014 0.000066 -0.000163 85.726585 78.580246 -75.874031 0.000176
[Rope4_Seg02]
7 139.999985 0.000060 0.000119 4.697527 5.236866 -13.871241 139.999985
8 139.999985 0.000060 0.000119 4.760858 5.321847 -14.025417 139.999985
[Rope4_Seg03]
7 139.999924 0.000000 -0.000238 5.082250 10.935478 -45.385712 139.999924
8 139.999924 0.000000 -0.000238 5.044643 11.052674 -46.004547 139.999924
[Rope4_Seg04]
7 139.999985 0.000000 0.000119 -2.773648 3.355776 -38.210526 139.999985
8 139.999985 0.000000 0.000119 -2.806493 3.291925 -37.858902 139.999985
[Rope4_Seg05]
7 139.999802 -0.000060 -0.000119 -8.370375 5.789169 -29.748083 139.999802
8 139.999802 -0.000060 -0.000119 -8.536722 5.879257 -30.086044 139.999802
[Rope4_Seg06]
7 139.999924 0.000000 0.000060 -22.393902 14.403457 -49.296783 139.999924
8 139.999924 0.000000 0.000060 -22.348928 14.473931 -49.097820 139.999924
[Rope4_Seg07]
7 139.999802 0.000000 0.000000 -6.321837 10.495613 -15.985653 139.999802
8 139.999802 0.000000 0.000000 -6.213984 10.398492 -15.772742 139.999802
[Rope4_Seg08]
7 139.999924 0.000000 0.000119 -2.596747 3.007239 -3.748948 139.999924
8 139.999924 0.000000 0.000119 -2.573260 2.953415 -3.677743 139.999924
[Rope4_Seg09]
7 90.185791 0.000060 0.000060 -135.617828 2.228885 0.850567 90.185791
8 90.185791 0.000060 0.000060 -135.617828 2.228885 0.850567 90.185791
[L_rear_hand01]
7 101.696655 -8.392275 -7.654577 -38.746338 0.246096 177.290207 102.329041
8 101.696655 -8.392275 -7.654577 -38.746338 0.246096 177.290207 102.329041
[L_rear_hand02]
7 102.726799 -1.568258 5.773216 84.314880 -1.139137 176.250763 102.900848
8 102.726799 -1.568258 5.773216 84.314865 -1.139136 176.250763 102.900848
[L_rear_hand03]
7 104.552910 9.721220 -10.420293 -155.747955 -4.630845 179.564758 105.519653
8 104.552910 9.721220 -10.420293 -155.747955 -4.630844 179.564758 105.519653
